HIERARCHY
ROOT Hips
{
	OFFSET 0.000000 0.000000 0.000000 
	CHANNELS 6 Xposition Yposition Zposition Yrotation Zrotation Xrotation 
	JOINT Lumbar
	{
		OFFSET 0.000000 0.000000 0.000000 
		CHANNELS 3 Zrotation Xrotation Yrotation
		JOINT Neck
		{
			OFFSET 0.000000 0.445665 0.000000 
			CHANNELS 3 Zrotation Xrotation Yrotation
			End Site
			{
				OFFSET 0.000000 0.227535 0.000000 
			}
		}
		JOINT RightShoulder
		{
			OFFSET 0.019635 0.377685 0.194865 
			CHANNELS 3 Zrotation Xrotation Yrotation
			JOINT RightElbow
			{
				OFFSET 0.000000 -0.243375 0.000000 
				CHANNELS 2 Zrotation Yrotation
				JOINT RightWrist
				{
					OFFSET 0.000000 -0.264825 0.000000 
					CHANNELS 2 Zrotation Xrotation
					End Site
					{
						OFFSET 0.006600 -0.176220 0.000990 
					}
				}
			}
		}
		JOINT LeftShoulder
		{
			OFFSET 0.019635 0.377685 -0.194865 
			CHANNELS 3 Zrotation Xrotation Yrotation
			JOINT LeftElbow
			{
				OFFSET 0.000000 -0.243375 0.000000 
				CHANNELS 2 Zrotation Yrotation
				JOINT LeftWrist
				{
					OFFSET 0.000000 -0.264825 0.000000 
					CHANNELS 2 Zrotation Xrotation
					End Site
					{
						OFFSET 0.006600 -0.176220 -0.000990 
					}
				}
			}
		}
	}
	JOINT RightHip
	{
		OFFSET 0.052140 -0.069960 0.075570 
		CHANNELS 3 Zrotation Xrotation Yrotation
		JOINT RightKnee
		{
			OFFSET 0.000000 -0.402270 0.000000 
			CHANNELS 1 Zrotation
			JOINT RightAnkle
			{
				OFFSET 0.000000 -0.404085 0.000000 
				CHANNELS 3 Zrotation Xrotation Yrotation
				End Site
				{
					OFFSET 0.204105 -0.089430 0.008415 
				}
			}
		}
	}
	JOINT LeftHip
	{
		OFFSET 0.052140 -0.069960 -0.075570 
		CHANNELS 3 Zrotation Xrotation Yrotation
		JOINT LeftKnee
		{
			OFFSET 0.000000 -0.402270 0.000000 
			CHANNELS 1 Zrotation
			JOINT LeftAnkle
			{
				OFFSET 0.000000 -0.404085 0.000000 
				CHANNELS 3 Zrotation Xrotation Yrotation
				End Site
				{
					OFFSET 0.204105 -0.089430 -0.008415 
				}
			}
		}
	}
}
MOTION
Frames: 30
Frame Time: 0.02
-0.0012 0.00032 -3e-05 -175.50547 -35.5405 2.14999 49.24623 -0.26984 -4.92707 -12.44604 4.09281 -1.20427 -16.53378 -5.70779 -8.06936 19.78935 98.54318 12.53332 1.48734 -23.17731 8.16372 -1.2684 31.64281 -97.96838 14.18161 -0.7371 40.12176 -3.83901 -4.76495 -20.42969 -7.01386 -3.65215 -4.03946 43.62738 3.29411 1.43629 -24.80739 -7.30169 3.0824 3.74455
-0.00088 0.00025 -0.00037 -175.48004 -35.5139 2.14218 49.17833 -0.26778 -4.90396 -12.37716 4.1815 -1.2057 -16.49867 -5.69639 -8.11227 19.77367 98.64727 12.50818 1.49882 -23.0848 8.18608 -1.30335 31.61789 -97.89642 14.14321 -0.7359 40.11425 -3.88715 -5.16887 -20.44704 -6.9902 -3.62588 -4.02234 43.63224 3.43483 1.95415 -24.83032 -7.28131 3.0238 3.71444
-0.00056 0.00018 -0.0007 -175.45468 -35.48739 2.13439 49.11059 -0.26572 -4.88095 -12.30841 4.27002 -1.20712 -16.46371 -5.68501 -8.15517 19.75818 98.75104 12.48307 1.51029 -22.99248 8.20789 -1.33654 31.59282 -97.83063 14.10639 -0.73571 40.10681 -3.93518 -5.57185 -20.46435 -6.96659 -3.59966 -4.00525 43.63714 3.57517 2.47051 -24.8532 -7.26099 2.96535 3.68442
-0.00024 0.00011 -0.00104 -175.42932 -35.46088 2.1266 49.04289 -0.26366 -4.85792 -12.23972 4.35846 -1.20855 -16.42872 -5.67365 -8.19797 19.74257 98.85481 12.45799 1.52174 -22.90023 8.23009 -1.37106 31.56793 -97.76006 14.0684 -0.73471 40.09934 -3.98318 -5.97458 -20.48165 -6.943 -3.57346 -3.98818 43.642 3.71546 2.98678 -24.87607 -7.24067 2.90692 3.65441
8e-05 3e-05 -0.00138 -175.4039 -35.43426 2.1188 48.97504 -0.26161 -4.8348 -12.17094 4.44701 -1.20998 -16.39355 -5.66228 -8.24072 19.72672 98.95889 12.43293 1.53321 -22.80788 8.25307 -1.40812 31.54328 -97.68052 14.02816 -0.73223 40.09178 -4.03129 -6.37812 -20.49897 -6.91937 -3.54722 -3.97107 43.6468 3.85612 3.50454 -24.89899 -7.2203 2.84835 3.62432
0.00039 -4e-05 -0.00171 -175.37866 -35.40799 2.11103 48.90755 -0.25952 -4.81202 -12.10226 4.53547 -1.21141 -16.35905 -5.65088 -8.28396 19.71197 99.06199 12.40771 1.54466 -22.71564 8.27244 -1.43328 31.51735 -97.64325 13.99843 -0.7368 40.08458 -4.07913 -6.7799 -20.51626 -6.89579 -3.52104 -3.95404 43.65188 3.99577 4.01793 -24.92178 -7.20006 2.79017 3.59446
0.00071 -0.00011 -0.00205 -175.35308 -35.38107 2.10319 48.8394 -0.25752 -4.78855 -12.03344 4.62403 -1.21284 -16.32323 -5.63956 -8.32617 19.69504 99.16696 12.38281 1.55614 -22.6232 8.29894 -1.48193 31.49397 -97.52258 13.94797 -0.72745 40.07669 -4.12745 -7.18479 -20.5336 -6.87213 -3.49477 -3.93687 43.65643 4.13728 4.53945 -24.94481 -7.17959 2.73126 3.56416
0.00103 -0.00019 -0.00239 -175.32783 -35.35473 2.09543 48.77187 -0.25543 -4.76575 -11.96479 4.71246 -1.21426 -16.28865 -5.62816 -8.36933 19.68012 99.2702 12.35765 1.56758 -22.53106 8.31908 -1.50967 31.46836 -97.47587 13.9159 -0.73044 40.0694 -4.17534 -7.58677 -20.55089 -6.84855 -3.46858 -3.91983 43.66143 4.27711 5.05368 -24.96761 -7.15933 2.67301 3.53426
0.00135 -0.00026 -0.00272 -175.30292 -35.32914 2.08772 48.705 -0.25325 -4.74364 -11.89612 4.80093 -1.21569 -16.25548 -5.61667 -8.41367 19.66764 99.3714 12.33201 1.57903 -22.43877 8.33051 -1.50858 31.4395 -97.53235 13.90944 -0.75065 40.06299 -4.22269 -7.98561 -20.56815 -6.82505 -3.44246 -3.90291 43.66715 4.41482 5.55838 -24.99019 -7.13933 2.61561 3.50489
0.00167 -0.00033 -0.00307 -175.27585 -35.29936 2.07956 48.63405 -0.25164 -4.71719 -11.82689 4.8898 -1.21713 -16.21391 -5.60573 -8.45128 19.64108 99.48456 12.30864 1.5906 -22.34579 8.38924 -1.66352 31.42775 -97.03365 13.76511 -0.67823 40.05194 -4.27312 -8.40378 -20.58569 -6.80103 -3.41588 -3.88522 43.66923 4.56454 6.11609 -25.0142 -7.11783 2.55345 3.47257
0.00197 -0.0004 -0.00339 -175.25345 -35.27833 2.07248 48.57192 -0.24881 -4.70015 -11.75927 4.97739 -1.21853 -16.19023 -5.59361 -8.50303 19.64423 99.57233 12.2808 1.60181 -22.25526 8.35002 -1.49572 31.38093 -97.68101 13.90543 -0.79703 40.05043 -4.31706 -8.7803 -20.60255 -6.77815 -3.39031 -3.86918 43.67864 4.68901 6.56308 -25.03509 -7.0995 2.50126 3.44642
0.00221 -0.00047 -0.00365 -175.24304 -35.28235 2.06701 48.53238 -0.24273 -4.70722 -11.69266 5.06517 -1.21983 -16.2149 -5.57834 -8.59435 19.72986 99.59056 12.23801 1.61282 -22.16331 8.02432 -0.381 31.22852 -101.70922 14.88499 -1.47981 40.07738 -4.3427 -9.04815 -20.61823 -6.75808 -3.3673 -3.85762 43.71139 4.74281 6.6935 -25.04828 -7.0899 2.47714 3.43777
0.00243 -0.00053 -0.00388 -175.23749 -35.295 2.06282 48.502 -0.23539 -4.72409 -11.62839 5.15106 -1.22108 -16.25773 -5.56189 -8.69961 19.8452 99.58292 12.19122 1.62332 -22.07531 7.60378 1.04565 31.04267 -106.8412 16.13877 -2.34675 40.11354 -4.36183 -9.27275 -20.63313 -6.73923 -3.34536 -3.84777 43.75097 4.77146 6.71469 -25.05823 -7.08348 2.46291 3.43523
0.00265 -0.00059 -0.00413 -175.23024 -35.303 2.05896 48.46845 -0.22854 -4.73757 -11.56514 5.23528 -1.22233 -16.29263 -5.54589 -8.79808 19.94623 99.58751 12.14805 1.6335 -21.99081 7.23787 2.29057 30.87819 -111.31838 17.2302 -3.10458 40.14391 -4.38436 -9.51393 -20.64789 -6.71999 -3.32302 -3.83717 43.78522 4.81259 6.79473 -25.06902 -7.07558 2.44364 3.42948
0.00288 -0.00066 -0.00438 -175.2208 -35.31399 2.05143 48.43067 -0.22204 -4.74649 -11.49268 5.32981 -1.22369 -16.32592 -5.53018 -8.89889 20.05048 99.59152 12.09732 1.64596 -21.88401 6.8221 3.70816 30.68745 -116.45839 18.48496 -3.97259 40.18085 -4.40537 -9.76958 -20.66461 -6.69996 -3.30021 -3.82635 43.82863 4.84948 6.83742 -25.08227 -7.06781 2.42656 3.42547
0.00309 -0.00072 -0.00461 -175.21714 -35.32092 2.05164 48.40397 -0.21452 -4.76735 -11.44045 5.4029 -1.22482 -16.36724 -5.5137 -8.99768 20.15539 99.58875 12.06129 1.65362 -21.82456 6.48894 4.83594 30.54367 -120.46202 19.46014 -4.65163 40.20656 -4.42754 -9.98287 -20.67722 -6.68197 -3.2788 -3.81649 43.85493 4.88893 6.92981 -25.08991 -7.06055 2.40746 3.4194
0.00321 -0.00074 -0.00481 -175.22782 -35.3133 2.07468 48.40482 -0.20434 -4.81775 -11.43987 5.41352 -1.22525 -16.42307 -5.49417 -9.0922 20.25162 99.59014 12.06796 1.64723 -21.89515 6.39659 5.12211 30.53639 -121.2083 19.63431 -4.79073 40.19656 -4.45891 -10.1084 -20.67746 -6.66831 -3.25925 -3.80792 43.82903 4.94418 7.20525 -25.08055 -7.05365 2.37872 3.4052
0.00329 -0.00076 -0.00499 -175.24442 -35.30141 2.10508 48.41663 -0.1932 -4.88003 -11.46065 5.4037 -1.22547 -16.48687 -5.47409 -9.18392 20.34781 99.58284 12.0894 1.63605 -22.01326 6.39235 5.10022 30.57789 -120.7492 19.51175 -4.72904 40.17527 -4.4911 -10.19058 -20.67388 -6.65677 -3.24126 -3.80035 43.78622 5.0024 7.53085 -25.06618 -7.04721 2.34796 3.38892
0.0034 -0.00078 -0.00518 -175.25838 -35.29238 2.13103 48.42396 -0.18257 -4.93751 -11.47352 5.40519 -1.22582 -16.54923 -5.4551 -9.2731 20.4465 99.56828 12.10326 1.62787 -22.10933 6.35505 5.19502 30.59783 -120.7366 19.49833 -4.7405 40.16093 -4.51977 -10.27879 -20.6728 -6.64499 -3.22385 -3.79302 43.75342 5.05763 7.82117 -25.05546 -7.04072 2.31917 3.37421
0.0035 -0.0008 -0.00539 -175.27157 -35.28016 2.16195 48.42958 -0.17155 -4.99271 -11.47723 5.39652 -1.226 -16.60333 -5.4327 -9.37643 20.53691 99.59883 12.12041 1.61684 -22.20713 6.28617 5.39497 30.61362 -121.17023 19.5977 -4.83142 40.13976 -4.56057 -10.418 -20.66827 -6.63048 -3.20156 -3.78308 43.71136 5.11899 8.16083 -25.03838 -7.03364 2.28617 3.35701
0.00359 -0.00082 -0.00555 -175.28859 -35.27296 2.18393 48.44116 -0.1612 -5.05545 -11.50713 5.40615 -1.2265 -16.67589 -5.41704 -9.45248 20.6427 99.53532 12.13458 1.60983 -22.31293 6.30373 5.30393 30.6506 -120.39885 19.39483 -4.71102 40.12933 -4.57754 -10.44777 -20.67026 -6.62178 -3.18916 -3.77845 43.68406 5.16851 8.41049 -25.03395 -7.02787 2.2615 3.3445
0.00368 -0.00086 -0.00562 -175.30751 -35.28579 2.18228 48.46723 -0.1523 -5.13562 -11.5869 5.45537 -1.22789 -16.79966 -5.42257 -9.42926 20.80198 99.1995 12.13401 1.62207 -22.4256 6.55237 4.43685 30.72992 -116.37129 18.36969 -4.01805 40.15864 -4.51845 -10.12844 -20.68933 -6.63189 -3.20917 -3.79133 43.70638 5.18531 8.40468 -25.06132 -7.02541 2.25865 3.34475
0.00375 -0.00092 -0.00564 -175.33162 -35.30341 2.17087 48.4988 -0.14416 -5.22329 -11.69577 5.52732 -1.22962 -16.94034 -5.43474 -9.3841 20.97355 98.77162 12.13033 1.63745 -22.54501 6.88324 3.29419 30.82989 -111.20743 17.05983 -3.12536 40.19872 -4.43717 -9.71024 -20.7156 -6.64721 -3.23814 -3.80899 43.74402 5.18996 8.3062 -25.10254 -7.02427 2.26455 3.3499
0.0038 -0.00097 -0.00567 -175.35779 -35.31471 2.16205 48.52722 -0.13618 -5.30743 -11.8023 5.59852 -1.23121 -17.07286 -5.4419 -9.36395 21.13337 98.39642 12.13021 1.64657 -22.66407 7.16727 2.30851 30.92328 -106.70661 15.91933 -2.34844 40.22777 -4.37276 -9.37671 -20.73955 -6.65794 -3.2593 -3.82237 43.77045 5.19996 8.24709 -25.14012 -7.02262 2.26745 3.35323
0.00393 -0.00101 -0.00574 -175.3646 -35.34098 2.16124 48.55845 -0.12634 -5.39133 -11.86257 5.62597 -1.23274 -17.21131 -5.45628 -9.27662 21.3233 97.97751 12.12222 1.67504 -22.77462 7.49263 1.18138 31.00626 -101.55098 14.60268 -1.45979 40.27829 -4.28006 -8.87865 -20.75861 -6.67793 -3.29594 -3.84447 43.81087 5.21122 8.20089 -25.1658 -7.02056 2.26602 3.35474
0.00392 -0.00107 -0.00572 -175.41405 -35.34026 2.14136 48.58541 -0.12019 -5.47881 -12.02712 5.75346 -1.23449 -17.33675 -5.45868 -9.32855 21.44836 97.62491 12.12884 1.66512 -22.90228 7.75242 0.28351 31.1155 -97.49786 13.58569 -0.7581 40.2919 -4.24059 -8.69436 -20.79054 -6.68011 -3.30286 -3.84979 43.83023 5.21639 8.10557 -25.22028 -7.01971 2.27587 3.36129
0.0034 -0.00113 -0.00548 -175.57086 -35.23887 2.07133 48.59318 -0.12654 -5.56173 -12.45954 6.12359 -1.23667 -17.45949 -5.41436 -9.7301 21.43652 97.50315 12.18359 1.53918 -23.09011 7.79341 0.11952 31.29325 -96.83329 13.49677 -0.6303 40.15915 -4.35772 -9.45185 -20.84902 -6.62959 -3.22184 -3.80543 43.75256 5.21233 7.89578 -25.34538 -7.0215 2.31325 3.3798
0.00276 -0.0012 -0.00514 -175.77263 -35.11528 1.98267 48.59585 -0.13554 -5.65027 -12.99693 6.5986 -1.23913 -17.56043 -5.36053 -10.2787 21.35187 97.4464 12.25153 1.37627 -23.29269 7.76911 0.19027 31.49879 -97.31149 13.71501 -0.697 39.99806 -4.52873 -10.51851 -20.92211 -6.5614 -3.11127 -3.74441 43.66057 5.20172 7.64124 -25.50016 -7.02451 2.36183 3.40328
0.00224 -0.00128 -0.00481 -175.95902 -35.01771 1.90209 48.60693 -0.14247 -5.74442 -13.49627 7.04455 -1.24146 -17.64823 -5.31825 -10.78823 21.26921 97.34372 12.30903 1.23637 -23.47784 7.78496 0.13417 31.68748 -97.2286 13.77372 -0.66976 39.87576 -4.67195 -11.41117 -20.99255 -6.50268 -3.0166 -3.69243 43.59726 5.19103 7.40609 -25.64479 -7.02722 2.40643 3.42503
0.00142 -0.00131 -0.00464 -176.12192 -34.85126 1.82169 48.59946 -0.15554 -5.80436 -13.96113 7.41421 -1.2436 -17.83846 -5.2435 -11.18558 21.31278 97.30799 12.38616 1.07033 -23.70564 7.75669 0.15663 31.88444 -97.27992 13.90621 -0.65843 39.63909 -4.8271 -12.44458 -21.04413 -6.4379 -2.9118 -3.63443 43.43767 5.19266 7.16577 -25.77526 -7.02896 2.44719 3.44494
